<svg xmlns="http://www.w3.org/2000/svg" viewBox="0 0 1200 630">
  <defs>
    <linearGradient id="bg" x1="0%" y1="0%" x2="100%" y2="100%">
      <stop offset="0%" stop-color="#0ea5e9"/>
      <stop offset="100%" stop-color="#1d4ed8"/>
    </linearGradient>
  </defs>
  <rect width="1200" height="630" fill="#0f172a"/>
  <rect x="60" y="50" width="1080" height="530" rx="36" fill="url(#bg)" opacity="0.25"/>
  <g transform="translate(120,140)">
    <rect width="520" height="350" rx="28" fill="#0f172a" opacity="0.65"/>
    <path d="M40 220c40 0 50-60 90-60s50 60 90 60 50-60 90-60 50 60 90 60" stroke="#38bdf8" stroke-width="16" fill="none" stroke-linecap="round" stroke-linejoin="round" opacity="0.9"/>
    <path d="M40 270c40 0 50-60 90-60s50 60 90 60 50-60 90-60 50 60 90 60" stroke="#38bdf8" stroke-width="12" fill="none" stroke-linecap="round" stroke-linejoin="round" opacity="0.6"/>
  </g>
  <g transform="translate(700,180)" fill="#e2e8f0">
    <text x="0" y="0" font-size="48" font-weight="600" opacity="0.7">Freshwater Sessions</text>
    <text x="0" y="72" font-size="82" font-weight="700">ReelyRated</text>
    <text x="0" y="150" font-size="28" opacity="0.75">Log your catches, group sessions, and learn from other UK anglers.</text>
    <text x="0" y="200" font-size="24" opacity="0.6">Follow anglers • Rate catches • Share session highlights</text>
  </g>
</svg>
